# xmcd
#
# Track frame offsets:
#	150
#	18615
#	33227
#	45490
#	63575
#	82622
#	92765
#	103132
#	116212
#	127090
#	138842
#	150115
#
# Disc length: 2238 seconds
#
# Revision: 0
# Processed by: cddbd v1.4PL0 Copyright (c) Steve Scherf et al.
# Submitted via: audiograbber 1.81.03
#
DISCID=9208bc0c
DTITLE=Billy Gilman - Classic Christmas
DYEAR=2000
DGENRE=Country
TTITLE0=White Christmas
TTITLE1=Warm and Fuzzy
TTITLE2=Winter Wonderland
TTITLE3=The Christmas Song
TTITLE4=There's A New Kid In Town
TTITLE5=Jingle Bell Rock
TTITLE6=Rockin' Around The Christmas Tree
TTITLE7=Angels We Have Heard On High
TTITLE8=Silent Night
TTITLE9=Away In A Manger
TTITLE10=Sleigh Ride
TTITLE11=O Holy Night
EXTD=
EXTT0=
EXTT1=
EXTT2=
EXTT3=
EXTT4=
EXTT5=
EXTT6=
EXTT7=
EXTT8=
EXTT9=
EXTT10=
EXTT11=
PLAYORDER=
